<mxfile host="app.diagrams.net" modified="2024-03-29T13:58:01.946Z" agent="Mozilla/5.0 (Windows NT 10.0; Win64; x64) AppleWebKit/537.36 (KHTML, like Gecko) Chrome/123.0.0.0 Safari/537.36" etag="6rT-OuSIJgrxLtPWQ3fa" version="24.2.1" type="device" pages="2">
  <diagram name="‫עמוד-1‬" id="lGBujKC89MsANumak7Qr">
    <mxGraphModel dx="2435" dy="1478" grid="1" gridSize="10" guides="1" tooltips="1" connect="1" arrows="1" fold="1" page="0" pageScale="1" pageWidth="827" pageHeight="1169" math="0" shadow="0">
      <root>
        <mxCell id="0" />
        <mxCell id="1" parent="0" />
        <mxCell id="ljZV5Z6OGfyYymSWNuCb-2" style="edgeStyle=orthogonalEdgeStyle;rounded=0;orthogonalLoop=1;jettySize=auto;html=1;exitX=0.5;exitY=1;exitDx=0;exitDy=0;exitPerimeter=0;entryX=0.5;entryY=0;entryDx=0;entryDy=0;" parent="1" source="GXFKzJdZuxaNmONE48NH-1" target="GXFKzJdZuxaNmONE48NH-6" edge="1">
          <mxGeometry relative="1" as="geometry" />
        </mxCell>
        <mxCell id="GXFKzJdZuxaNmONE48NH-1" value="Welcome screen" style="strokeWidth=2;html=1;shape=mxgraph.flowchart.start_1;whiteSpace=wrap;fillColor=#fff2cc;strokeColor=#d6b656;" parent="1" vertex="1">
          <mxGeometry x="364" width="100" height="60" as="geometry" />
        </mxCell>
        <mxCell id="ljZV5Z6OGfyYymSWNuCb-3" style="edgeStyle=orthogonalEdgeStyle;rounded=0;orthogonalLoop=1;jettySize=auto;html=1;exitX=1;exitY=0.5;exitDx=0;exitDy=0;entryX=0;entryY=0.5;entryDx=0;entryDy=0;" parent="1" source="GXFKzJdZuxaNmONE48NH-6" target="GXFKzJdZuxaNmONE48NH-7" edge="1">
          <mxGeometry relative="1" as="geometry" />
        </mxCell>
        <mxCell id="ljZV5Z6OGfyYymSWNuCb-4" style="edgeStyle=orthogonalEdgeStyle;rounded=0;orthogonalLoop=1;jettySize=auto;html=1;" parent="1" source="GXFKzJdZuxaNmONE48NH-6" target="GXFKzJdZuxaNmONE48NH-12" edge="1">
          <mxGeometry relative="1" as="geometry" />
        </mxCell>
        <mxCell id="GXFKzJdZuxaNmONE48NH-6" value="Login" style="rounded=1;whiteSpace=wrap;html=1;absoluteArcSize=1;arcSize=14;strokeWidth=2;fillColor=#dae8fc;strokeColor=#6c8ebf;" parent="1" vertex="1">
          <mxGeometry x="374" y="120" width="80" height="80" as="geometry" />
        </mxCell>
        <mxCell id="ljZV5Z6OGfyYymSWNuCb-119" style="edgeStyle=orthogonalEdgeStyle;rounded=0;orthogonalLoop=1;jettySize=auto;html=1;exitX=0.5;exitY=1;exitDx=0;exitDy=0;entryX=1;entryY=0.5;entryDx=0;entryDy=0;" parent="1" source="GXFKzJdZuxaNmONE48NH-7" target="ljZV5Z6OGfyYymSWNuCb-5" edge="1">
          <mxGeometry relative="1" as="geometry" />
        </mxCell>
        <mxCell id="GXFKzJdZuxaNmONE48NH-7" value="Sign Up" style="rounded=1;whiteSpace=wrap;html=1;absoluteArcSize=1;arcSize=14;strokeWidth=2;fillColor=#dae8fc;strokeColor=#6c8ebf;" parent="1" vertex="1">
          <mxGeometry x="570" y="120" width="80" height="80" as="geometry" />
        </mxCell>
        <mxCell id="GXFKzJdZuxaNmONE48NH-15" value="" style="edgeStyle=orthogonalEdgeStyle;rounded=0;orthogonalLoop=1;jettySize=auto;html=1;entryX=0.5;entryY=0;entryDx=0;entryDy=0;entryPerimeter=0;" parent="1" source="GXFKzJdZuxaNmONE48NH-12" target="GXFKzJdZuxaNmONE48NH-17" edge="1">
          <mxGeometry relative="1" as="geometry">
            <mxPoint x="170" y="290" as="targetPoint" />
          </mxGeometry>
        </mxCell>
        <mxCell id="GXFKzJdZuxaNmONE48NH-12" value="forgot password?" style="strokeWidth=2;html=1;shape=mxgraph.flowchart.delay;whiteSpace=wrap;fillColor=#f8cecc;strokeColor=#b85450;" parent="1" vertex="1">
          <mxGeometry x="160" y="80" width="100" height="60" as="geometry" />
        </mxCell>
        <mxCell id="GXFKzJdZuxaNmONE48NH-22" style="edgeStyle=orthogonalEdgeStyle;rounded=0;orthogonalLoop=1;jettySize=auto;html=1;entryX=0.22;entryY=0.5;entryDx=0;entryDy=0;entryPerimeter=0;" parent="1" source="GXFKzJdZuxaNmONE48NH-17" target="GXFKzJdZuxaNmONE48NH-21" edge="1">
          <mxGeometry relative="1" as="geometry" />
        </mxCell>
        <mxCell id="GXFKzJdZuxaNmONE48NH-17" value="get verification code from email" style="strokeWidth=2;html=1;shape=mxgraph.flowchart.display;whiteSpace=wrap;fillColor=#d5e8d4;strokeColor=#82b366;" parent="1" vertex="1">
          <mxGeometry x="-10" y="150" width="130" height="60" as="geometry" />
        </mxCell>
        <mxCell id="ljZV5Z6OGfyYymSWNuCb-117" style="edgeStyle=orthogonalEdgeStyle;rounded=0;orthogonalLoop=1;jettySize=auto;html=1;exitX=0.5;exitY=1;exitDx=0;exitDy=0;exitPerimeter=0;entryX=0;entryY=0.5;entryDx=0;entryDy=0;" parent="1" source="GXFKzJdZuxaNmONE48NH-21" target="ljZV5Z6OGfyYymSWNuCb-5" edge="1">
          <mxGeometry relative="1" as="geometry" />
        </mxCell>
        <mxCell id="GXFKzJdZuxaNmONE48NH-21" value="change password" style="strokeWidth=2;html=1;shape=mxgraph.flowchart.extract_or_measurement;whiteSpace=wrap;fillColor=#ffe6cc;strokeColor=#d79b00;" parent="1" vertex="1">
          <mxGeometry x="165" y="210" width="90" height="70" as="geometry" />
        </mxCell>
        <mxCell id="GXFKzJdZuxaNmONE48NH-49" value="Google Drive" style="strokeWidth=2;html=1;shape=mxgraph.flowchart.database;whiteSpace=wrap;" parent="1" vertex="1">
          <mxGeometry x="359" y="810" width="110" height="100" as="geometry" />
        </mxCell>
        <mxCell id="ljZV5Z6OGfyYymSWNuCb-124" style="edgeStyle=orthogonalEdgeStyle;rounded=0;orthogonalLoop=1;jettySize=auto;html=1;exitX=0.25;exitY=0;exitDx=0;exitDy=0;entryX=0.433;entryY=1.026;entryDx=0;entryDy=0;entryPerimeter=0;" parent="1" source="ljZV5Z6OGfyYymSWNuCb-5" target="ljZV5Z6OGfyYymSWNuCb-125" edge="1">
          <mxGeometry relative="1" as="geometry">
            <mxPoint x="310" y="360" as="targetPoint" />
          </mxGeometry>
        </mxCell>
        <mxCell id="ljZV5Z6OGfyYymSWNuCb-131" style="edgeStyle=orthogonalEdgeStyle;rounded=0;orthogonalLoop=1;jettySize=auto;html=1;exitX=0.75;exitY=1;exitDx=0;exitDy=0;" parent="1" source="ljZV5Z6OGfyYymSWNuCb-5" target="ljZV5Z6OGfyYymSWNuCb-6" edge="1">
          <mxGeometry relative="1" as="geometry" />
        </mxCell>
        <mxCell id="ljZV5Z6OGfyYymSWNuCb-132" style="edgeStyle=orthogonalEdgeStyle;rounded=0;orthogonalLoop=1;jettySize=auto;html=1;exitX=0.25;exitY=1;exitDx=0;exitDy=0;entryX=0.5;entryY=0;entryDx=0;entryDy=0;" parent="1" source="ljZV5Z6OGfyYymSWNuCb-5" target="ljZV5Z6OGfyYymSWNuCb-7" edge="1">
          <mxGeometry relative="1" as="geometry" />
        </mxCell>
        <mxCell id="ljZV5Z6OGfyYymSWNuCb-5" value="Menu" style="rounded=1;whiteSpace=wrap;html=1;absoluteArcSize=1;arcSize=14;strokeWidth=2;fillColor=#dae8fc;strokeColor=#6c8ebf;" parent="1" vertex="1">
          <mxGeometry x="368" y="470" width="80" height="80" as="geometry" />
        </mxCell>
        <mxCell id="ljZV5Z6OGfyYymSWNuCb-6" value="Upload" style="rounded=1;whiteSpace=wrap;html=1;absoluteArcSize=1;arcSize=14;strokeWidth=2;fillColor=#dae8fc;strokeColor=#6c8ebf;" parent="1" vertex="1">
          <mxGeometry x="540" y="620" width="80" height="80" as="geometry" />
        </mxCell>
        <mxCell id="ljZV5Z6OGfyYymSWNuCb-7" value="Download" style="rounded=1;whiteSpace=wrap;html=1;absoluteArcSize=1;arcSize=14;strokeWidth=2;fillColor=#dae8fc;strokeColor=#6c8ebf;" parent="1" vertex="1">
          <mxGeometry x="200" y="620" width="80" height="80" as="geometry" />
        </mxCell>
        <mxCell id="ljZV5Z6OGfyYymSWNuCb-123" style="edgeStyle=orthogonalEdgeStyle;rounded=0;orthogonalLoop=1;jettySize=auto;html=1;exitX=0.5;exitY=1;exitDx=0;exitDy=0;exitPerimeter=0;entryX=0.5;entryY=0;entryDx=0;entryDy=0;" parent="1" source="ljZV5Z6OGfyYymSWNuCb-121" target="ljZV5Z6OGfyYymSWNuCb-5" edge="1">
          <mxGeometry relative="1" as="geometry" />
        </mxCell>
        <mxCell id="ljZV5Z6OGfyYymSWNuCb-121" value="get verification code from email" style="strokeWidth=2;html=1;shape=mxgraph.flowchart.display;whiteSpace=wrap;fillColor=#d5e8d4;strokeColor=#82b366;" parent="1" vertex="1">
          <mxGeometry x="430" y="300" width="130" height="60" as="geometry" />
        </mxCell>
        <mxCell id="ljZV5Z6OGfyYymSWNuCb-130" style="edgeStyle=orthogonalEdgeStyle;rounded=0;orthogonalLoop=1;jettySize=auto;html=1;exitX=0.5;exitY=0;exitDx=0;exitDy=0;exitPerimeter=0;entryX=0.25;entryY=1;entryDx=0;entryDy=0;" parent="1" source="ljZV5Z6OGfyYymSWNuCb-125" target="GXFKzJdZuxaNmONE48NH-6" edge="1">
          <mxGeometry relative="1" as="geometry" />
        </mxCell>
        <mxCell id="ljZV5Z6OGfyYymSWNuCb-125" value="User logout" style="strokeWidth=2;html=1;shape=mxgraph.flowchart.delay;whiteSpace=wrap;fillColor=#f8cecc;strokeColor=#b85450;" parent="1" vertex="1">
          <mxGeometry x="280" y="300" width="100" height="60" as="geometry" />
        </mxCell>
        <mxCell id="ljZV5Z6OGfyYymSWNuCb-146" style="edgeStyle=orthogonalEdgeStyle;rounded=0;orthogonalLoop=1;jettySize=auto;html=1;exitX=0.5;exitY=0;exitDx=0;exitDy=0;exitPerimeter=0;entryX=0.5;entryY=1;entryDx=0;entryDy=0;" parent="1" source="ljZV5Z6OGfyYymSWNuCb-140" target="ljZV5Z6OGfyYymSWNuCb-7" edge="1">
          <mxGeometry relative="1" as="geometry" />
        </mxCell>
        <mxCell id="ljZV5Z6OGfyYymSWNuCb-140" value="decompress and decrypt file" style="strokeWidth=2;html=1;shape=mxgraph.flowchart.decision;whiteSpace=wrap;fillColor=#e1d5e7;strokeColor=#9673a6;" parent="1" vertex="1">
          <mxGeometry x="185" y="730" width="110" height="110" as="geometry" />
        </mxCell>
        <mxCell id="ljZV5Z6OGfyYymSWNuCb-142" value="encrypt and compress file" style="strokeWidth=2;html=1;shape=mxgraph.flowchart.decision;whiteSpace=wrap;fillColor=#e1d5e7;strokeColor=#9673a6;" parent="1" vertex="1">
          <mxGeometry x="525" y="730" width="110" height="110" as="geometry" />
        </mxCell>
        <mxCell id="ljZV5Z6OGfyYymSWNuCb-143" style="edgeStyle=orthogonalEdgeStyle;rounded=0;orthogonalLoop=1;jettySize=auto;html=1;exitX=0.5;exitY=1;exitDx=0;exitDy=0;entryX=0.5;entryY=0;entryDx=0;entryDy=0;entryPerimeter=0;" parent="1" source="ljZV5Z6OGfyYymSWNuCb-6" target="ljZV5Z6OGfyYymSWNuCb-142" edge="1">
          <mxGeometry relative="1" as="geometry" />
        </mxCell>
        <mxCell id="ljZV5Z6OGfyYymSWNuCb-144" style="edgeStyle=orthogonalEdgeStyle;rounded=0;orthogonalLoop=1;jettySize=auto;html=1;exitX=0.5;exitY=1;exitDx=0;exitDy=0;exitPerimeter=0;entryX=1;entryY=0.5;entryDx=0;entryDy=0;entryPerimeter=0;" parent="1" source="ljZV5Z6OGfyYymSWNuCb-142" target="GXFKzJdZuxaNmONE48NH-49" edge="1">
          <mxGeometry relative="1" as="geometry" />
        </mxCell>
        <mxCell id="ljZV5Z6OGfyYymSWNuCb-147" style="edgeStyle=orthogonalEdgeStyle;rounded=0;orthogonalLoop=1;jettySize=auto;html=1;exitX=0;exitY=0.5;exitDx=0;exitDy=0;exitPerimeter=0;entryX=0.5;entryY=1;entryDx=0;entryDy=0;entryPerimeter=0;" parent="1" source="GXFKzJdZuxaNmONE48NH-49" target="ljZV5Z6OGfyYymSWNuCb-140" edge="1">
          <mxGeometry relative="1" as="geometry" />
        </mxCell>
        <mxCell id="HCby_LzA3pGhovCrHqmG-1" style="edgeStyle=orthogonalEdgeStyle;rounded=0;orthogonalLoop=1;jettySize=auto;html=1;exitX=0.75;exitY=1;exitDx=0;exitDy=0;entryX=0.5;entryY=0;entryDx=0;entryDy=0;entryPerimeter=0;" edge="1" parent="1" source="GXFKzJdZuxaNmONE48NH-6" target="ljZV5Z6OGfyYymSWNuCb-121">
          <mxGeometry relative="1" as="geometry" />
        </mxCell>
      </root>
    </mxGraphModel>
  </diagram>
  <diagram id="-qEwZZTARCnbmSD4B9YT" name="‫עמוד-2‬">
    <mxGraphModel dx="2678" dy="1395" grid="1" gridSize="10" guides="1" tooltips="1" connect="1" arrows="1" fold="1" page="0" pageScale="1" pageWidth="827" pageHeight="1169" math="0" shadow="0">
      <root>
        <mxCell id="0" />
        <mxCell id="1" parent="0" />
        <mxCell id="xJgJa3cvvmzKZQAyqUDP-1" value="Backend" style="swimlane;whiteSpace=wrap;html=1;fillColor=#6a00ff;fontColor=#ffffff;strokeColor=#3700CC;" vertex="1" parent="1">
          <mxGeometry x="-690" y="-310" width="620" height="530" as="geometry" />
        </mxCell>
        <mxCell id="xJgJa3cvvmzKZQAyqUDP-4" value="" style="rounded=0;whiteSpace=wrap;html=1;" vertex="1" parent="xJgJa3cvvmzKZQAyqUDP-1">
          <mxGeometry x="190" y="380" width="120" height="60" as="geometry" />
        </mxCell>
        <mxCell id="xJgJa3cvvmzKZQAyqUDP-5" value="Backend" style="swimlane;whiteSpace=wrap;html=1;fillColor=#6a00ff;fontColor=#ffffff;strokeColor=#3700CC;" vertex="1" parent="1">
          <mxGeometry x="-690" y="370" width="620" height="530" as="geometry" />
        </mxCell>
      </root>
    </mxGraphModel>
  </diagram>
</mxfile>
